<?xml version="1.0" encoding="utf-8"?>
<!-- Generator: Adobe Illustrator 16.0.0, SVG Export Plug-In . SVG Version: 6.00 Build 0)  -->
<!DOCTYPE svg PUBLIC "-//W3C//DTD SVG 1.1//EN" "http://www.w3.org/Graphics/SVG/1.1/DTD/svg11.dtd">
<svg version="1.1" id="_x3C_Layer_x3E_" xmlns="http://www.w3.org/2000/svg" xmlns:xlink="http://www.w3.org/1999/xlink" x="0px"
	 y="0px" width="274.336px" height="296.46px" viewBox="0 0 274.336 296.46" enable-background="new 0 0 274.336 296.46"
	 xml:space="preserve">
<g>
	<path fill="#231F20" d="M75.263,23.377h110.432c25.646,0,70.178,9.976,70.178,56.998c0,33.485-26.005,58.418-65.191,63.048v0.712
		c28.502,4.275,48.092,20.662,48.092,48.089c0,52.725-45.24,77.658-102.236,78.378l-113.278,1.417L75.263,23.377z M98.779,225.001
		h17.809c33.486,0,55.924-9.262,55.924-33.484c0-21.729-15.671-24.934-45.595-24.934H110.89L98.779,225.001z M120.51,121.694h24.932
		c27.783,0,44.177-11.044,44.177-28.139c0-19.949-16.394-23.156-41.324-23.156h-17.101L120.51,121.694z"/>
</g>
</svg>
